<svg width="256" height="256" viewBox="0 0 256 256" fill="none" xmlns="http://www.w3.org/2000/svg">
<rect width="256" height="256" fill="white"/>
<path fill-rule="evenodd" clip-rule="evenodd" d="M65.5894 13.4864L69.2071 13L160.851 65.6694L252.426 24.5435L256 29.174L202.894 95.9681L201.629 96.8993L165.361 110.973V174.246L164.484 176.375L97.2197 244L92.0917 241.871V136.756L0.633304 84.1934L0 79.4495L65.5894 13.4864ZM98.0973 137.075V234.586L159.356 172.999V113.304L98.0973 137.075ZM165.361 104.511L198.706 91.5716L243.595 35.113L165.361 70.2472V104.511ZM156.773 70.271L68.217 19.3766L7.02247 80.9198L94.6176 131.262L156.773 70.271ZM107.646 126.907L159.356 106.841V76.166L107.646 126.907Z" fill="#E32212"/>
</svg>
