<svg width="481" height="155" viewBox="0 0 481 155" fill="none" xmlns="http://www.w3.org/2000/svg">
<path d="M216.437 98.0809L189.179 56.084H199.267L221.374 90.543L243.266 56.084H252.925L225.666 98.0809V126.079H216.437V98.0809Z" fill="#040404"/>
<path d="M260.424 56.084H282.297C309.858 56.084 321.669 71.8544 321.669 91.0814C321.669 110.308 309.639 126.079 282.297 126.079H260.424V56.084ZM282.516 118.086C305.483 118.086 312.045 105.34 312.045 91.2974C312.045 77.2553 305.483 64.5093 282.516 64.5093H269.829V118.086H282.516Z" fill="#040404"/>
<path d="M330.419 101.597C330.419 86.8005 340.657 74.8328 354.597 74.8328C362.875 74.8328 370.281 78.9671 374.637 85.4949L375.073 76.3559H382.915V127.056H375.073L374.637 117.917C370.499 124.444 363.093 128.579 354.597 128.579C340.657 128.361 330.419 116.393 330.419 101.597ZM374.42 101.597C374.42 89.4116 366.578 82.0134 356.994 82.0134C347.409 82.0134 339.567 89.4116 339.567 101.597C339.567 113.782 347.409 121.181 356.994 121.181C366.578 121.181 374.42 113.782 374.42 101.597Z" fill="#040404"/>
<path d="M403.239 82.0795H391.664V76.0699H403.239V62.3335H412.365V76.0699H424.162V82.0795H412.365V126.079H403.239V82.0795Z" fill="#040404"/>
<path d="M429.162 101.597C429.162 86.8005 439.156 74.8328 452.765 74.8328C460.845 74.8328 468.075 78.9671 472.327 85.4949L472.753 76.3559H480.408V127.056H472.753L472.327 117.917C468.287 124.444 461.058 128.579 452.765 128.579C438.943 128.361 429.162 116.393 429.162 101.597ZM472.115 101.597C472.115 89.4116 464.46 82.0134 455.104 82.0134C445.747 82.0134 438.092 89.4116 438.092 101.597C438.092 113.782 445.747 121.181 455.104 121.181C464.247 121.181 472.115 113.782 472.115 101.597Z" fill="#040404"/>
<path fill-rule="evenodd" clip-rule="evenodd" d="M44.2678 0.915006L46.6948 0.589844L108.174 35.7963L169.608 8.30602L172.005 11.4012L136.379 56.0492L135.531 56.6717L111.2 66.0792V108.373L110.611 109.796L65.4871 155L62.047 153.577V83.3137L0.691943 48.1785L0.26709 45.0075L44.2678 0.915006ZM66.0759 83.5268V148.707L107.171 107.54V67.637L66.0759 83.5268ZM111.2 61.7596L133.569 53.1104L163.683 15.3711L111.2 38.8563V61.7596ZM105.438 38.8722L46.0306 4.85223L4.97813 45.9903L63.7415 79.6413L105.438 38.8722ZM72.4816 76.7304L107.171 63.3174V42.8127L72.4816 76.7304Z" fill="#E32212"/>
</svg>
