<svg width="1024" height="1024" viewBox="0 0 1024 1024" fill="none" xmlns="http://www.w3.org/2000/svg">
<g clip-path="url(#clip0_750_110556)">
<path fill-rule="evenodd" clip-rule="evenodd" d="M40 40H851.314L984 172.686V984H172.686L40 851.314V40ZM67.3137 56L179.314 168H956.686L844.686 56H67.3137ZM968 184H184V968H968V184ZM168 956.686V179.314L56 67.3137V844.686L168 956.686Z" fill="#E32212"/>
<path d="M458.224 848.96C458.224 851.787 457.557 854.453 456.224 856.96C454.89 859.467 452.757 861.52 449.824 863.12C446.89 864.667 443.13 865.44 438.544 865.44H428.464V888H419.344V832.4H438.544C442.81 832.4 446.41 833.147 449.344 834.64C452.33 836.08 454.544 838.053 455.984 840.56C457.477 843.067 458.224 845.867 458.224 848.96ZM438.544 858C442.01 858 444.597 857.227 446.304 855.68C448.01 854.08 448.864 851.84 448.864 848.96C448.864 842.88 445.424 839.84 438.544 839.84H428.464V858H438.544Z" fill="#E32212"/>
<path d="M476.042 850.32C477.375 848.08 479.135 846.347 481.322 845.12C483.562 843.84 486.202 843.2 489.242 843.2V852.64H486.922C483.349 852.64 480.629 853.547 478.762 855.36C476.949 857.173 476.042 860.32 476.042 864.8V888H466.922V843.92H476.042V850.32Z" fill="#E32212"/>
<path d="M516.745 888.72C512.585 888.72 508.825 887.787 505.465 885.92C502.105 884 499.465 881.333 497.545 877.92C495.625 874.453 494.665 870.453 494.665 865.92C494.665 861.44 495.652 857.467 497.625 854C499.598 850.533 502.292 847.867 505.705 846C509.118 844.133 512.932 843.2 517.145 843.2C521.358 843.2 525.172 844.133 528.585 846C531.998 847.867 534.692 850.533 536.665 854C538.638 857.467 539.625 861.44 539.625 865.92C539.625 870.4 538.612 874.373 536.585 877.84C534.558 881.307 531.785 884 528.265 885.92C524.798 887.787 520.958 888.72 516.745 888.72ZM516.745 880.8C519.092 880.8 521.278 880.24 523.305 879.12C525.385 878 527.065 876.32 528.345 874.08C529.625 871.84 530.265 869.12 530.265 865.92C530.265 862.72 529.652 860.027 528.425 857.84C527.198 855.6 525.572 853.92 523.545 852.8C521.518 851.68 519.332 851.12 516.985 851.12C514.638 851.12 512.452 851.68 510.425 852.8C508.452 853.92 506.878 855.6 505.705 857.84C504.532 860.027 503.945 862.72 503.945 865.92C503.945 870.667 505.145 874.347 507.545 876.96C509.998 879.52 513.065 880.8 516.745 880.8Z" fill="#E32212"/>
<path d="M567.121 851.36H558.961V888H549.761V851.36H544.561V843.92H549.761V840.8C549.761 835.733 551.094 832.053 553.761 829.76C556.481 827.413 560.721 826.24 566.481 826.24V833.84C563.707 833.84 561.761 834.373 560.641 835.44C559.521 836.453 558.961 838.24 558.961 840.8V843.92H567.121V851.36Z" fill="#E32212"/>
<path d="M579.843 838.08C578.19 838.08 576.803 837.52 575.683 836.4C574.563 835.28 574.003 833.893 574.003 832.24C574.003 830.587 574.563 829.2 575.683 828.08C576.803 826.96 578.19 826.4 579.843 826.4C581.443 826.4 582.803 826.96 583.923 828.08C585.043 829.2 585.603 830.587 585.603 832.24C585.603 833.893 585.043 835.28 583.923 836.4C582.803 837.52 581.443 838.08 579.843 838.08ZM584.323 843.92V888H575.203V843.92H584.323Z" fill="#E32212"/>
<path d="M605.417 828.8V888H596.297V828.8H605.417Z" fill="#E32212"/>
<path d="M622.031 838.08C620.377 838.08 618.991 837.52 617.871 836.4C616.751 835.28 616.191 833.893 616.191 832.24C616.191 830.587 616.751 829.2 617.871 828.08C618.991 826.96 620.377 826.4 622.031 826.4C623.631 826.4 624.991 826.96 626.111 828.08C627.231 829.2 627.791 830.587 627.791 832.24C627.791 833.893 627.231 835.28 626.111 836.4C624.991 837.52 623.631 838.08 622.031 838.08ZM626.511 843.92V888H617.391V843.92H626.511Z" fill="#E32212"/>
<path d="M660.724 843.2C664.191 843.2 667.284 843.92 670.004 845.36C672.778 846.8 674.938 848.933 676.484 851.76C678.031 854.587 678.804 858 678.804 862V888H669.764V863.36C669.764 859.413 668.778 856.4 666.804 854.32C664.831 852.187 662.138 851.12 658.724 851.12C655.311 851.12 652.591 852.187 650.564 854.32C648.591 856.4 647.604 859.413 647.604 863.36V888H638.484V843.92H647.604V848.96C649.098 847.147 650.991 845.733 653.284 844.72C655.631 843.707 658.111 843.2 660.724 843.2Z" fill="#E32212"/>
<path d="M708.198 843.2C711.611 843.2 714.624 843.893 717.237 845.28C719.904 846.613 721.984 848.293 723.478 850.32V843.92H732.677V888.72C732.677 892.773 731.824 896.373 730.117 899.52C728.411 902.72 725.931 905.227 722.677 907.04C719.477 908.853 715.638 909.76 711.158 909.76C705.184 909.76 700.224 908.347 696.277 905.52C692.331 902.747 690.091 898.96 689.557 894.16H698.598C699.291 896.453 700.757 898.293 702.997 899.68C705.291 901.12 708.011 901.84 711.158 901.84C714.838 901.84 717.798 900.72 720.038 898.48C722.331 896.24 723.478 892.987 723.478 888.72V881.36C721.931 883.44 719.824 885.2 717.158 886.64C714.544 888.027 711.558 888.72 708.198 888.72C704.358 888.72 700.838 887.76 697.638 885.84C694.491 883.867 691.984 881.147 690.117 877.68C688.304 874.16 687.397 870.187 687.397 865.76C687.397 861.333 688.304 857.413 690.117 854C691.984 850.587 694.491 847.947 697.638 846.08C700.838 844.16 704.358 843.2 708.198 843.2ZM723.478 865.92C723.478 862.88 722.837 860.24 721.557 858C720.331 855.76 718.704 854.053 716.677 852.88C714.651 851.707 712.464 851.12 710.117 851.12C707.771 851.12 705.584 851.707 703.557 852.88C701.531 854 699.878 855.68 698.598 857.92C697.371 860.107 696.758 862.72 696.758 865.76C696.758 868.8 697.371 871.467 698.598 873.76C699.878 876.053 701.531 877.813 703.557 879.04C705.637 880.213 707.824 880.8 710.117 880.8C712.464 880.8 714.651 880.213 716.677 879.04C718.704 877.867 720.331 876.16 721.557 873.92C722.837 871.627 723.478 868.96 723.478 865.92Z" fill="#E32212"/>
<path d="M240.8 270.08C240.8 260.853 242.346 253.653 245.44 248.48C248.586 243.253 253.973 240.64 261.6 240.64C269.226 240.64 274.586 243.253 277.68 248.48C280.826 253.653 282.4 260.853 282.4 270.08C282.4 279.413 280.826 286.72 277.68 292C274.586 297.227 269.226 299.84 261.6 299.84C253.973 299.84 248.586 297.227 245.44 292C242.346 286.72 240.8 279.413 240.8 270.08ZM273.44 270.08C273.44 265.76 273.146 262.107 272.56 259.12C272.026 256.133 270.906 253.707 269.2 251.84C267.493 249.92 264.96 248.96 261.6 248.96C258.24 248.96 255.706 249.92 254 251.84C252.293 253.707 251.146 256.133 250.56 259.12C250.026 262.107 249.76 265.76 249.76 270.08C249.76 274.56 250.026 278.32 250.56 281.36C251.093 284.4 252.213 286.853 253.92 288.72C255.68 290.587 258.24 291.52 261.6 291.52C264.96 291.52 267.493 290.587 269.2 288.72C270.96 286.853 272.106 284.4 272.64 281.36C273.173 278.32 273.44 274.56 273.44 270.08Z" fill="#E32212"/>
<path d="M348.976 740V401.6H495.856C532.976 401.6 561.616 410.88 581.776 429.44C601.936 448 612.016 473.92 612.016 507.2C612.016 540.48 601.936 566.56 581.776 585.44C561.616 604 532.976 613.28 495.856 613.28H410.416V740H348.976ZM410.416 564.8H486.256C530.416 564.8 552.496 545.6 552.496 507.2C552.496 469.12 530.416 450.08 486.256 450.08H410.416V564.8Z" fill="#E32212"/>
<path d="M672.181 740V550.4H627.061V505.28H672.181V504.8C672.181 471.52 680.821 446.4 698.101 429.44C715.701 412.48 742.901 402.88 779.701 400.64L803.221 399.2L807.061 443.36L784.981 444.8C765.781 446.08 752.181 450.88 744.181 459.2C736.181 467.2 732.181 479.2 732.181 495.2V505.28H796.021V550.4H732.181V740H672.181Z" fill="#E32212"/>
</g>
<defs>
<clipPath id="clip0_750_110556">
<rect width="1024" height="1024" fill="white"/>
</clipPath>
</defs>
</svg>
