<svg width="1024" height="1024" viewBox="0 0 1024 1024" fill="none" xmlns="http://www.w3.org/2000/svg">
<g clip-path="url(#clip0_750_109891)">
<path fill-rule="evenodd" clip-rule="evenodd" d="M40 40H851.314L984 172.686V984H172.686L40 851.314V40ZM67.3137 56L179.314 168H956.686L844.686 56H67.3137ZM968 184H184V968H968V184ZM168 956.686V179.314L56 67.3137V844.686L168 956.686Z" fill="#E32212"/>
<path d="M302.11 888.56C298.376 888.56 295.016 887.92 292.03 886.64C289.043 885.307 286.696 883.44 284.99 881.04C283.283 878.64 282.43 875.84 282.43 872.64H292.19C292.403 875.04 293.336 877.013 294.99 878.56C296.696 880.107 299.07 880.88 302.11 880.88C305.256 880.88 307.71 880.133 309.47 878.64C311.23 877.093 312.11 875.12 312.11 872.72C312.11 870.853 311.55 869.333 310.43 868.16C309.363 866.987 308.003 866.08 306.35 865.44C304.75 864.8 302.51 864.107 299.63 863.36C296.003 862.4 293.043 861.44 290.75 860.48C288.51 859.467 286.59 857.92 284.99 855.84C283.39 853.76 282.59 850.987 282.59 847.52C282.59 844.32 283.39 841.52 284.99 839.12C286.59 836.72 288.83 834.88 291.71 833.6C294.59 832.32 297.923 831.68 301.71 831.68C307.096 831.68 311.496 833.04 314.91 835.76C318.376 838.427 320.296 842.107 320.67 846.8H310.59C310.43 844.773 309.47 843.04 307.71 841.6C305.95 840.16 303.63 839.44 300.75 839.44C298.136 839.44 296.003 840.107 294.35 841.44C292.696 842.773 291.87 844.693 291.87 847.2C291.87 848.907 292.376 850.32 293.39 851.44C294.456 852.507 295.79 853.36 297.39 854C298.99 854.64 301.176 855.333 303.95 856.08C307.63 857.093 310.616 858.107 312.91 859.12C315.256 860.133 317.23 861.707 318.83 863.84C320.483 865.92 321.31 868.72 321.31 872.24C321.31 875.067 320.536 877.733 318.99 880.24C317.496 882.747 315.283 884.773 312.35 886.32C309.47 887.813 306.056 888.56 302.11 888.56Z" fill="#E32212"/>
<path d="M371.751 843.92L344.711 908.72H335.271L344.231 887.28L326.871 843.92H337.031L349.431 877.52L362.311 843.92H371.751Z" fill="#E32212"/>
<path d="M400.873 843.2C404.34 843.2 407.433 843.92 410.153 845.36C412.927 846.8 415.087 848.933 416.633 851.76C418.18 854.587 418.953 858 418.953 862V888H409.913V863.36C409.913 859.413 408.927 856.4 406.953 854.32C404.98 852.187 402.287 851.12 398.873 851.12C395.46 851.12 392.74 852.187 390.713 854.32C388.74 856.4 387.753 859.413 387.753 863.36V888H378.633V843.92H387.753V848.96C389.247 847.147 391.14 845.733 393.433 844.72C395.78 843.707 398.26 843.2 400.873 843.2Z" fill="#E32212"/>
<path d="M441.227 851.36V875.76C441.227 877.413 441.6 878.613 442.347 879.36C443.147 880.053 444.48 880.4 446.347 880.4H451.947V888H444.747C440.64 888 437.493 887.04 435.307 885.12C433.12 883.2 432.027 880.08 432.027 875.76V851.36H426.827V843.92H432.027V832.96H441.227V843.92H451.947V851.36H441.227Z" fill="#E32212"/>
<path d="M483.152 843.2C486.512 843.2 489.499 843.92 492.112 845.36C494.779 846.8 496.859 848.933 498.352 851.76C499.899 854.587 500.672 858 500.672 862V888H491.632V863.36C491.632 859.413 490.646 856.4 488.672 854.32C486.699 852.187 484.006 851.12 480.592 851.12C477.179 851.12 474.459 852.187 472.432 854.32C470.459 856.4 469.472 859.413 469.472 863.36V888H460.352V828.8H469.472V849.04C471.019 847.173 472.966 845.733 475.312 844.72C477.712 843.707 480.326 843.2 483.152 843.2Z" fill="#E32212"/>
<path d="M552.705 864.88C552.705 866.533 552.599 868.027 552.385 869.36H518.705C518.972 872.88 520.279 875.707 522.625 877.84C524.972 879.973 527.852 881.04 531.265 881.04C536.172 881.04 539.639 878.987 541.665 874.88H551.505C550.172 878.933 547.745 882.267 544.225 884.88C540.759 887.44 536.439 888.72 531.265 888.72C527.052 888.72 523.265 887.787 519.905 885.92C516.599 884 513.985 881.333 512.065 877.92C510.199 874.453 509.265 870.453 509.265 865.92C509.265 861.387 510.172 857.413 511.985 854C513.852 850.533 516.439 847.867 519.745 846C523.105 844.133 526.945 843.2 531.265 843.2C535.425 843.2 539.132 844.107 542.385 845.92C545.639 847.733 548.172 850.293 549.985 853.6C551.799 856.853 552.705 860.613 552.705 864.88ZM543.185 862C543.132 858.64 541.932 855.947 539.585 853.92C537.239 851.893 534.332 850.88 530.865 850.88C527.719 850.88 525.025 851.893 522.785 853.92C520.545 855.893 519.212 858.587 518.785 862H543.185Z" fill="#E32212"/>
<path d="M572.32 851.36V875.76C572.32 877.413 572.694 878.613 573.44 879.36C574.24 880.053 575.574 880.4 577.44 880.4H583.04V888H575.84C571.734 888 568.587 887.04 566.4 885.12C564.214 883.2 563.12 880.08 563.12 875.76V851.36H557.92V843.92H563.12V832.96H572.32V843.92H583.04V851.36H572.32Z" fill="#E32212"/>
<path d="M596.086 838.08C594.433 838.08 593.046 837.52 591.926 836.4C590.806 835.28 590.246 833.893 590.246 832.24C590.246 830.587 590.806 829.2 591.926 828.08C593.046 826.96 594.433 826.4 596.086 826.4C597.686 826.4 599.046 826.96 600.166 828.08C601.286 829.2 601.846 830.587 601.846 832.24C601.846 833.893 601.286 835.28 600.166 836.4C599.046 837.52 597.686 838.08 596.086 838.08ZM600.566 843.92V888H591.446V843.92H600.566Z" fill="#E32212"/>
<path d="M609.5 865.92C609.5 861.387 610.406 857.413 612.22 854C614.086 850.533 616.646 847.867 619.9 846C623.153 844.133 626.886 843.2 631.1 843.2C636.433 843.2 640.833 844.48 644.3 847.04C647.82 849.547 650.193 853.147 651.42 857.84H641.58C640.78 855.653 639.5 853.947 637.74 852.72C635.98 851.493 633.766 850.88 631.1 850.88C627.366 850.88 624.38 852.213 622.14 854.88C619.953 857.493 618.86 861.173 618.86 865.92C618.86 870.667 619.953 874.373 622.14 877.04C624.38 879.707 627.366 881.04 631.1 881.04C636.38 881.04 639.873 878.72 641.58 874.08H651.42C650.14 878.56 647.74 882.133 644.22 884.8C640.7 887.413 636.326 888.72 631.1 888.72C626.886 888.72 623.153 887.787 619.9 885.92C616.646 884 614.086 881.333 612.22 877.92C610.406 874.453 609.5 870.453 609.5 865.92Z" fill="#E32212"/>
<path d="M699.45 832.4C705.37 832.4 710.543 833.547 714.97 835.84C719.45 838.08 722.89 841.333 725.29 845.6C727.743 849.813 728.97 854.747 728.97 860.4C728.97 866.053 727.743 870.96 725.29 875.12C722.89 879.28 719.45 882.48 714.97 884.72C710.543 886.907 705.37 888 699.45 888H681.29V832.4H699.45ZM699.45 880.56C705.956 880.56 710.943 878.8 714.41 875.28C717.876 871.76 719.61 866.8 719.61 860.4C719.61 853.947 717.876 848.907 714.41 845.28C710.943 841.653 705.956 839.84 699.45 839.84H690.41V880.56H699.45Z" fill="#E32212"/>
<path d="M734.968 865.76C734.968 861.333 735.875 857.413 737.688 854C739.555 850.587 742.062 847.947 745.208 846.08C748.408 844.16 751.928 843.2 755.768 843.2C759.235 843.2 762.248 843.893 764.808 845.28C767.422 846.613 769.502 848.293 771.048 850.32V843.92H780.248V888H771.048V881.44C769.502 883.52 767.395 885.253 764.728 886.64C762.062 888.027 759.022 888.72 755.608 888.72C751.822 888.72 748.355 887.76 745.208 885.84C742.062 883.867 739.555 881.147 737.688 877.68C735.875 874.16 734.968 870.187 734.968 865.76ZM771.048 865.92C771.048 862.88 770.408 860.24 769.128 858C767.902 855.76 766.275 854.053 764.248 852.88C762.222 851.707 760.035 851.12 757.688 851.12C755.342 851.12 753.155 851.707 751.128 852.88C749.102 854 747.448 855.68 746.168 857.92C744.942 860.107 744.328 862.72 744.328 865.76C744.328 868.8 744.942 871.467 746.168 873.76C747.448 876.053 749.102 877.813 751.128 879.04C753.208 880.213 755.395 880.8 757.688 880.8C760.035 880.8 762.222 880.213 764.248 879.04C766.275 877.867 767.902 876.16 769.128 873.92C770.408 871.627 771.048 868.96 771.048 865.92Z" fill="#E32212"/>
<path d="M802.867 851.36V875.76C802.867 877.413 803.241 878.613 803.987 879.36C804.787 880.053 806.121 880.4 807.987 880.4H813.587V888H806.387C802.28 888 799.134 887.04 796.947 885.12C794.76 883.2 793.667 880.08 793.667 875.76V851.36H788.467V843.92H793.667V832.96H802.867V843.92H813.587V851.36H802.867Z" fill="#E32212"/>
<path d="M818.953 865.76C818.953 861.333 819.859 857.413 821.673 854C823.539 850.587 826.046 847.947 829.193 846.08C832.393 844.16 835.913 843.2 839.753 843.2C843.219 843.2 846.233 843.893 848.793 845.28C851.406 846.613 853.486 848.293 855.033 850.32V843.92H864.233V888H855.033V881.44C853.486 883.52 851.379 885.253 848.713 886.64C846.046 888.027 843.006 888.72 839.593 888.72C835.806 888.72 832.339 887.76 829.193 885.84C826.046 883.867 823.539 881.147 821.673 877.68C819.859 874.16 818.953 870.187 818.953 865.76ZM855.033 865.92C855.033 862.88 854.393 860.24 853.113 858C851.886 855.76 850.259 854.053 848.233 852.88C846.206 851.707 844.019 851.12 841.673 851.12C839.326 851.12 837.139 851.707 835.113 852.88C833.086 854 831.433 855.68 830.153 857.92C828.926 860.107 828.313 862.72 828.313 865.76C828.313 868.8 828.926 871.467 830.153 873.76C831.433 876.053 833.086 877.813 835.113 879.04C837.193 880.213 839.379 880.8 841.673 880.8C844.019 880.8 846.206 880.213 848.233 879.04C850.259 877.867 851.886 876.16 853.113 873.92C854.393 871.627 855.033 868.96 855.033 865.92Z" fill="#E32212"/>
<path d="M252.348 284.16C252.881 286.827 254.028 288.853 255.788 290.24C257.548 291.627 259.921 292.32 262.908 292.32C266.694 292.32 269.468 290.827 271.228 287.84C272.988 284.853 273.868 279.76 273.868 272.56C272.588 274.373 270.774 275.787 268.428 276.8C266.134 277.76 263.628 278.24 260.908 278.24C257.441 278.24 254.294 277.547 251.468 276.16C248.641 274.72 246.401 272.613 244.748 269.84C243.148 267.013 242.348 263.6 242.348 259.6C242.348 253.733 244.054 249.067 247.468 245.6C250.934 242.08 255.681 240.32 261.708 240.32C268.961 240.32 274.108 242.747 277.148 247.6C280.241 252.4 281.788 259.787 281.788 269.76C281.788 276.64 281.201 282.267 280.028 286.64C278.908 291.013 276.934 294.32 274.108 296.56C271.281 298.8 267.361 299.92 262.348 299.92C256.641 299.92 252.241 298.427 249.148 295.44C246.054 292.453 244.321 288.693 243.948 284.16H252.348ZM262.508 270.56C265.708 270.56 268.214 269.573 270.028 267.6C271.894 265.573 272.828 262.907 272.828 259.6C272.828 255.92 271.841 253.067 269.868 251.04C267.948 248.96 265.308 247.92 261.948 247.92C258.588 247.92 255.921 248.987 253.948 251.12C252.028 253.2 251.068 255.947 251.068 259.36C251.068 262.613 252.001 265.307 253.868 267.44C255.788 269.52 258.668 270.56 262.508 270.56Z" fill="#E32212"/>
<path d="M329.369 249.52H302.569V265.44C303.689 263.947 305.342 262.693 307.529 261.68C309.769 260.667 312.142 260.16 314.649 260.16C319.129 260.16 322.756 261.12 325.529 263.04C328.356 264.96 330.356 267.387 331.529 270.32C332.756 273.253 333.369 276.347 333.369 279.6C333.369 283.547 332.596 287.067 331.049 290.16C329.556 293.2 327.289 295.6 324.249 297.36C321.262 299.12 317.582 300 313.209 300C307.396 300 302.729 298.56 299.209 295.68C295.689 292.8 293.582 288.987 292.889 284.24H301.769C302.356 286.747 303.662 288.747 305.689 290.24C307.716 291.68 310.249 292.4 313.289 292.4C317.076 292.4 319.902 291.253 321.769 288.96C323.689 286.667 324.649 283.627 324.649 279.84C324.649 276 323.689 273.067 321.769 271.04C319.849 268.96 317.022 267.92 313.289 267.92C310.676 267.92 308.462 268.587 306.649 269.92C304.889 271.2 303.609 272.96 302.809 275.2H294.169V241.52H329.369V249.52Z" fill="#E32212"/>
<path d="M377.903 267.2V274.88H345.023V267.2H377.903Z" fill="#E32212"/>
<path d="M388.46 250V241.68H405.1V300H395.9V250H388.46Z" fill="#E32212"/>
<path d="M416.428 250V241.68H433.068V300H423.868V250H416.428Z" fill="#E32212"/>
<path d="M455.437 269.52C449.89 266.747 447.117 262.373 447.117 256.4C447.117 253.52 447.837 250.88 449.277 248.48C450.717 246.08 452.877 244.187 455.757 242.8C458.637 241.36 462.157 240.64 466.317 240.64C470.424 240.64 473.917 241.36 476.797 242.8C479.73 244.187 481.917 246.08 483.357 248.48C484.797 250.88 485.517 253.52 485.517 256.4C485.517 259.387 484.744 262.027 483.197 264.32C481.704 266.56 479.704 268.293 477.197 269.52C480.237 270.64 482.637 272.48 484.397 275.04C486.157 277.547 487.037 280.507 487.037 283.92C487.037 287.387 486.157 290.453 484.397 293.12C482.637 295.787 480.184 297.84 477.037 299.28C473.89 300.72 470.317 301.44 466.317 301.44C462.317 301.44 458.744 300.72 455.597 299.28C452.504 297.84 450.077 295.787 448.317 293.12C446.557 290.453 445.677 287.387 445.677 283.92C445.677 280.453 446.557 277.467 448.317 274.96C450.077 272.453 452.45 270.64 455.437 269.52ZM476.797 257.52C476.797 254.533 475.864 252.24 473.997 250.64C472.13 249.04 469.57 248.24 466.317 248.24C463.117 248.24 460.584 249.04 458.717 250.64C456.85 252.24 455.917 254.56 455.917 257.6C455.917 260.267 456.877 262.453 458.797 264.16C460.77 265.813 463.277 266.64 466.317 266.64C469.357 266.64 471.864 265.787 473.837 264.08C475.81 262.373 476.797 260.187 476.797 257.52ZM466.317 273.52C462.797 273.52 459.917 274.4 457.677 276.16C455.49 277.867 454.397 280.347 454.397 283.6C454.397 286.64 455.464 289.12 457.597 291.04C459.73 292.907 462.637 293.84 466.317 293.84C469.944 293.84 472.797 292.88 474.877 290.96C477.01 289.04 478.077 286.587 478.077 283.6C478.077 280.4 476.984 277.92 474.797 276.16C472.664 274.4 469.837 273.52 466.317 273.52Z" fill="#E32212"/>
<path d="M434.288 740.8C407.728 740.8 383.088 737.44 360.368 730.72C337.648 723.68 318.448 714.24 302.768 702.4L321.488 653.92C337.168 665.12 354.288 673.76 372.848 679.84C391.728 685.92 412.208 688.96 434.288 688.96C459.568 688.96 477.968 684.8 489.488 676.48C501.008 667.84 506.768 656.8 506.768 643.36C506.768 632.16 502.608 623.36 494.288 616.96C486.288 610.56 472.368 605.28 452.528 601.12L399.728 590.08C339.568 577.28 309.488 546.4 309.488 497.44C309.488 476.32 315.088 457.92 326.288 442.24C337.488 426.56 353.008 414.4 372.848 405.76C392.688 397.12 415.568 392.8 441.488 392.8C464.528 392.8 486.128 396.32 506.288 403.36C526.448 410.08 543.248 419.68 556.688 432.16L537.968 478.24C511.408 455.84 479.088 444.64 441.008 444.64C418.928 444.64 401.648 449.28 389.168 458.56C376.688 467.84 370.448 480 370.448 495.04C370.448 506.56 374.288 515.84 381.968 522.88C389.648 529.6 402.768 534.88 421.328 538.72L473.648 549.76C505.328 556.48 528.848 567.04 544.208 581.44C559.888 595.84 567.728 615.04 567.728 639.04C567.728 659.2 562.288 676.96 551.408 692.32C540.528 707.68 525.008 719.68 504.848 728.32C485.008 736.64 461.488 740.8 434.288 740.8Z" fill="#E32212"/>
<path d="M704.94 740.8C684.46 740.8 666.38 735.84 650.7 725.92C635.34 716 623.34 701.92 614.7 683.68C606.06 665.12 601.74 643.36 601.74 618.4C601.74 593.12 606.06 571.52 614.7 553.6C623.34 535.36 635.34 521.28 650.7 511.36C666.38 501.44 684.46 496.48 704.94 496.48C721.58 496.48 736.62 500.16 750.06 507.52C763.5 514.88 773.58 524.64 780.3 536.8V397.6H840.3V736H781.74V697.12C775.34 710.56 765.26 721.28 751.5 729.28C737.74 736.96 722.22 740.8 704.94 740.8ZM721.74 695.2C739.66 695.2 754.06 688.8 764.94 676C775.82 662.88 781.26 643.68 781.26 618.4C781.26 592.8 775.82 573.76 764.94 561.28C754.06 548.48 739.66 542.08 721.74 542.08C703.82 542.08 689.42 548.48 678.54 561.28C667.66 573.76 662.22 592.8 662.22 618.4C662.22 643.68 667.66 662.88 678.54 676C689.42 688.8 703.82 695.2 721.74 695.2Z" fill="#E32212"/>
</g>
<defs>
<clipPath id="clip0_750_109891">
<rect width="1024" height="1024" fill="white"/>
</clipPath>
</defs>
</svg>
